<?xml version="1.0" encoding="UTF-8"?>
<svg xmlns="http://www.w3.org/2000/svg" xmlns:xlink="http://www.w3.org/1999/xlink" width="25px" height="25px" viewBox="0 0 25 25" version="1.1">
<g id="surface1">
<path style=" stroke:none;fill-rule:nonzero;fill:#daa520;fill-opacity:1;" d="M 20.5 2 L 4.5 2 C 3.121094 2 2 3.121094 2 4.5 L 2 20.5 C 2 21.878906 3.121094 23 4.5 23 L 20.5 23 C 21.878906 23 23 21.878906 23 20.5 L 23 4.5 C 23 3.121094 21.878906 2 20.5 2 Z M 8.5 10 L 8.5 19.5 L 5.5 19.5 L 5.5 10 Z M 5.5 7.234375 C 5.5 6.535156 6.101562 6 7 6 C 7.898438 6 8.464844 6.535156 8.5 7.234375 C 8.5 7.933594 7.941406 8.5 7 8.5 C 6.101562 8.5 5.5 7.933594 5.5 7.234375 Z M 19.5 19.5 L 16.5 19.5 C 16.5 19.5 16.5 14.871094 16.5 14.5 C 16.5 13.5 16 12.5 14.75 12.480469 L 14.710938 12.480469 C 13.5 12.480469 13 13.511719 13 14.5 C 13 14.953125 13 19.5 13 19.5 L 10 19.5 L 10 10 L 13 10 L 13 11.28125 C 13 11.28125 13.964844 10 15.90625 10 C 17.890625 10 19.5 11.363281 19.5 14.128906 Z M 19.5 19.5 "/>
</g>
</svg>
